<svg width="16" height="20" viewBox="0 0 16 20" fill="none" xmlns="http://www.w3.org/2000/svg">
<path d="M7.25 14.6158H8.75V8.78906H7.25V14.6158ZM8 7.00056C8.22883 7.00056 8.42067 6.92315 8.5755 6.76831C8.73033 6.61348 8.80775 6.42165 8.80775 6.19281C8.80775 5.96398 8.73033 5.77215 8.5755 5.61731C8.42067 5.46265 8.22883 5.38531 8 5.38531C7.77117 5.38531 7.57933 5.46265 7.4245 5.61731C7.26967 5.77215 7.19225 5.96398 7.19225 6.19281C7.19225 6.42165 7.26967 6.61348 7.4245 6.76831C7.57933 6.92315 7.77117 7.00056 8 7.00056ZM8 19.4813C5.83717 18.8915 4.0465 17.6184 2.628 15.6621C1.20933 13.7057 0.5 11.5186 0.5 9.10056V3.34681L8 0.539062L15.5 3.34681V9.10056C15.5 11.5186 14.7907 13.7057 13.372 15.6621C11.9535 17.6184 10.1628 18.8915 8 19.4813ZM8 17.9006C9.73333 17.3506 11.1667 16.2506 12.3 14.6006C13.4333 12.9506 14 11.1172 14 9.10056V4.37556L8 2.13506L2 4.37556V9.10056C2 11.1172 2.56667 12.9506 3.7 14.6006C4.83333 16.2506 6.26667 17.3506 8 17.9006Z" fill="#644E12"/>
</svg>
