<svg xmlns="http://www.w3.org/2000/svg" width="32" height="32" viewBox="0 0 32 32" fill="none">
<g id="Icons/Material Icons/Left Panel Close">
<path id="Vector" d="M21.3972 19.3353V12.6633C21.3972 12.3865 21.2745 12.1968 21.0292 12.0943C20.7838 11.9917 20.5629 12.0387 20.3665 12.2353L17.4458 15.1557C17.2049 15.3968 17.0845 15.678 17.0845 15.9993C17.0845 16.3207 17.2049 16.6019 17.4458 16.843L20.3665 19.7633C20.5629 19.96 20.7838 20.007 21.0292 19.9043C21.2745 19.8019 21.3972 19.6122 21.3972 19.3353ZM7.07684 27.3327C6.41195 27.3327 5.84395 27.0972 5.37284 26.6263C4.90195 26.1552 4.6665 25.5872 4.6665 24.9223V7.07635C4.6665 6.41146 4.90195 5.84346 5.37284 5.37235C5.84395 4.90146 6.41195 4.66602 7.07684 4.66602H24.9228C25.5877 4.66602 26.1557 4.90146 26.6268 5.37235C27.0977 5.84346 27.3332 6.41146 27.3332 7.07635V24.9223C27.3332 25.5872 27.0977 26.1552 26.6268 26.6263C26.1557 27.0972 25.5877 27.3327 24.9228 27.3327H7.07684ZM10.6665 25.3327V6.66602H7.07684C6.97417 6.66602 6.88017 6.70879 6.79484 6.79435C6.70928 6.87968 6.6665 6.97368 6.6665 7.07635V24.9223C6.6665 25.025 6.70928 25.119 6.79484 25.2043C6.88017 25.2899 6.97417 25.3327 7.07684 25.3327H10.6665ZM12.6665 25.3327H24.9228C25.0255 25.3327 25.1195 25.2899 25.2048 25.2043C25.2904 25.119 25.3332 25.025 25.3332 24.9223V7.07635C25.3332 6.97368 25.2904 6.87968 25.2048 6.79435C25.1195 6.70879 25.0255 6.66602 24.9228 6.66602H12.6665V25.3327Z" fill="white"/>
</g>
</svg>